<svg width="204" height="58" viewBox="0 0 204 58" fill="none" xmlns="http://www.w3.org/2000/svg">
<path fill-rule="evenodd" clip-rule="evenodd" d="M7.48552 47.2058C12.5832 43.0909 17.6632 40.7893 22.7603 40.687C27.8252 40.5853 32.8717 42.6716 37.9359 47.1664C38.4778 47.6473 39.3078 47.5975 39.7887 47.0562C40.2689 46.5143 40.2197 45.6843 39.6778 45.2034C34.027 40.1884 28.3585 37.9498 22.7078 38.0626C17.0898 38.1755 11.4548 40.6286 5.83745 45.1641C5.27388 45.6187 5.18531 46.446 5.64063 47.009C6.09529 47.5725 6.92195 47.6611 7.48552 47.2058Z" fill="#FCBC05"/>
<path fill-rule="evenodd" clip-rule="evenodd" d="M22.1376 14.8501C29.3768 23.2624 34.4659 33.8192 37.4288 46.5081C37.6072 47.2712 38.3715 47.7463 39.1346 47.5677C39.8976 47.3898 40.3726 46.6251 40.1948 45.8619C37.1178 32.6851 31.8082 21.7338 24.2902 12.9976C23.7791 12.4032 22.8816 12.3363 22.2879 12.8471C21.6935 13.3587 21.6265 14.2556 22.1376 14.8501Z" fill="#4285F4"/>
<path fill-rule="evenodd" clip-rule="evenodd" d="M8.07116 46.4449C10.5662 33.0574 16.1435 22.7591 24.2113 14.9434C24.7742 14.3984 24.7879 13.4984 24.2428 12.9359C23.6976 12.3727 22.7981 12.3582 22.2352 12.904C13.7744 21.0998 7.89599 31.8853 5.27891 45.9249C5.13523 46.6949 5.64434 47.4376 6.41457 47.5813C7.18546 47.7249 7.92748 47.2156 8.07116 46.4449Z" fill="#EA4335"/>
<path d="M22.8261 19.0435C26.4279 19.0435 29.3478 16.1236 29.3478 12.5217C29.3478 8.91989 26.4279 6 22.8261 6C19.2242 6 16.3043 8.91989 16.3043 12.5217C16.3043 16.1236 19.2242 19.0435 22.8261 19.0435Z" fill="#EA4335"/>
<path d="M6.52173 51C10.1236 51 13.0434 48.0801 13.0434 44.4783C13.0434 40.8764 10.1236 37.9565 6.52173 37.9565C2.91989 37.9565 0 40.8764 0 44.4783C0 48.0801 2.91989 51 6.52173 51Z" fill="#FCBC05"/>
<path d="M38.4783 51C42.0801 51 45 48.0801 45 44.4783C45 40.8764 42.0801 37.9565 38.4783 37.9565C34.8764 37.9565 31.9565 40.8764 31.9565 44.4783C31.9565 48.0801 34.8764 51 38.4783 51Z" fill="#4285F4"/>
<path d="M47.4902 48H53.5693V32.9854C53.5693 29.1523 55.6445 26.9795 59.0869 26.9795C60.1123 26.9795 61.04 27.126 61.5527 27.3213V21.8281C61.0889 21.7061 60.3809 21.584 59.624 21.584C56.6455 21.584 54.4971 23.4639 53.6914 26.5889H53.5693V22.1211H47.4902V48ZM75.3711 57.0576C82.8662 57.0576 87.5781 53.127 87.5781 47.2676V22.1211H81.499V26.5156H81.3525C79.8877 23.5371 77.0557 21.584 73.3936 21.584C66.8506 21.584 62.627 26.6133 62.627 34.792V34.8164C62.627 42.873 66.8018 47.8535 73.2959 47.8535C77.0068 47.8535 79.9365 46.0957 81.377 43.3369H81.499V47.0723C81.499 50.3682 79.3262 52.4678 75.3711 52.4678C72.1973 52.4678 70.1221 51.3447 69.4629 49.8555L69.3896 49.6602H63.4082L63.457 49.8799C64.1895 53.9326 68.5107 57.0576 75.3711 57.0576ZM75.2002 43.166C71.2939 43.166 68.8281 40.0166 68.8281 34.9141V34.8896C68.8281 29.8604 71.2939 26.7109 75.2002 26.7109C78.96 26.7109 81.5234 29.9092 81.5234 34.9141V34.9385C81.5234 39.9678 78.9844 43.166 75.2002 43.166ZM104.009 48.5127C111.602 48.5127 116.533 43.459 116.533 35.0605V35.0117C116.533 26.6621 111.528 21.584 103.984 21.584C96.4648 21.584 91.4844 26.7109 91.4844 35.0117V35.0605C91.4844 43.4346 96.3916 48.5127 104.009 48.5127ZM104.033 43.6055C100.151 43.6055 97.6855 40.5049 97.6855 35.0605V35.0117C97.6855 29.6406 100.2 26.5156 103.984 26.5156C107.842 26.5156 110.332 29.6162 110.332 35.0117V35.0605C110.332 40.4805 107.866 43.6055 104.033 43.6055ZM131.499 48H152.471V44.9727H134.819V12.7705H131.499V48ZM158.55 18.0195C159.722 18.0195 160.674 17.0674 160.674 15.8711C160.674 14.6748 159.722 13.7471 158.55 13.7471C157.354 13.7471 156.401 14.6748 156.401 15.8711C156.401 17.0674 157.354 18.0195 158.55 18.0195ZM156.914 48H160.161V22.6094H156.914V48ZM173.564 48.4639C174.346 48.4639 175.176 48.3662 175.688 48.2686V45.6318C175.322 45.6807 174.81 45.7539 174.224 45.7539C171.855 45.7539 170.659 44.8018 170.659 41.9941V25.3193H175.688V22.6094H170.659V15.749H167.339V22.6094H163.604V25.3193H167.339V42.043C167.339 46.4863 169.39 48.4639 173.564 48.4639ZM189.604 48.4639C195.098 48.4639 199.15 45.3145 200.029 40.9688L200.078 40.7246H196.88L196.831 40.9443C196.001 43.7031 193.413 45.583 189.678 45.583C184.673 45.583 181.426 42.1406 181.328 36.0859H200.396V34.8164C200.396 27.2236 196.123 22.1455 189.336 22.1455C182.549 22.1455 178.057 27.3945 178.057 35.3535V35.3779C178.057 43.4102 182.476 48.4639 189.604 48.4639ZM189.312 25.0264C193.657 25.0264 196.782 27.9805 197.148 33.5225H181.377C181.768 28.127 184.99 25.0264 189.312 25.0264Z" fill="white"/>
</svg>
